<svg xmlns="http://www.w3.org/2000/svg" width="50.355" height="36.389" viewBox="0 0 50.355 36.389">
  <g id="iconfinder_watering_can_1880385" transform="translate(-10.145 -12)">
    <g id="Сгруппировать_3" data-name="Сгруппировать 3" transform="translate(10.145 12)">
      <path id="Контур_4" data-name="Контур 4" d="M54.068,25.634a7.182,7.182,0,0,0-5.449-.389v-1.07a.919.919,0,0,0-.973-.973H42.3v7.492a.975.975,0,0,1-.973.973H35.485a.975.975,0,0,1-.973-.973V23.3H29.16a.919.919,0,0,0-.973.973V34.1L15.928,25.925a6.273,6.273,0,0,0,.292-1.946,6.372,6.372,0,0,0-1.849-4.086.946.946,0,0,0-1.362.1l-6.616,7.2a.946.946,0,0,0,.1,1.362,5.844,5.844,0,0,0,3.989,1.557h.292a5.742,5.742,0,0,0,1.362-.195l16.151,14.3V48.6a.919.919,0,0,0,.973.973H47.744a.919.919,0,0,0,.973-.973V41.59a.738.738,0,0,0,.389-.195C49.4,41.2,56.5,36.142,56.5,31.277,56.4,28.552,55.625,26.607,54.068,25.634ZM48.619,39.255V27.288c1.168-.389,3.113-.876,4.378,0,.973.584,1.459,1.946,1.459,3.989C54.457,34.1,50.76,37.6,48.619,39.255Z" transform="translate(-6.145 -13.18)" fill="#fff"/>
      <path id="Контур_5" data-name="Контур 5" d="M36.973,30.9h4.476a.975.975,0,0,0,.973-.973V13.973A.975.975,0,0,0,41.449,13H36.973a.975.975,0,0,0-.973.973V29.832A1.066,1.066,0,0,0,36.973,30.9Z" transform="translate(-6.953 -13)" fill="#fff"/>
    </g>
  </g>
</svg>
