<svg xmlns="http://www.w3.org/2000/svg" width="38.309" height="36.867" viewBox="0 0 38.309 36.867">
  <g id="iconfinder_6_5955261" transform="translate(-1 -10.605)">
    <g id="Сгруппировать_4" data-name="Сгруппировать 4" transform="translate(1 12.887)">
      <path id="Контур_6" data-name="Контур 6" d="M18.292,75.574A17.292,17.292,0,1,1,29.46,45.079a.58.58,0,1,1-.75.886,16.109,16.109,0,1,0,3.2,3.669.581.581,0,0,1,.98-.623,17.295,17.295,0,0,1-14.6,26.563Z" transform="translate(-1 -40.99)" fill="#fff"/>
    </g>
    <g id="Сгруппировать_5" data-name="Сгруппировать 5" transform="translate(3.685 15.572)">
      <path id="Контур_7" data-name="Контур 7" d="M51.347,105.945a14.607,14.607,0,1,1,9.292-25.879.581.581,0,0,1-.739.9,13.422,13.422,0,1,0,2.962,3.427.58.58,0,1,1,.993-.6,14.61,14.61,0,0,1-12.508,22.157Z" transform="translate(-36.74 -76.73)" fill="#fff"/>
    </g>
    <g id="Сгруппировать_6" data-name="Сгруппировать 6" transform="translate(7.175 19.062)">
      <path id="Контур_8" data-name="Контур 8" d="M94.317,145.425a11.117,11.117,0,0,1,0-22.235,11.013,11.013,0,0,1,6.767,2.3.581.581,0,0,1-.708.921,9.865,9.865,0,0,0-6.06-2.056,9.95,9.95,0,1,0,8.829,5.349.581.581,0,1,1,1.029-.538,11.121,11.121,0,0,1-9.858,16.262Z" transform="translate(-83.2 -123.19)" fill="#fff"/>
    </g>
    <g id="Сгруппировать_7" data-name="Сгруппировать 7" transform="translate(10.463 22.35)">
      <path id="Контур_9" data-name="Контур 9" d="M134.809,182.627a7.829,7.829,0,1,1,2.628-15.205,7.94,7.94,0,0,1,1.088.484q.318.171.618.371l.142.1a.58.58,0,0,1-.667.949l-.116-.08c-.171-.113-.346-.219-.527-.317a6.656,6.656,0,1,0,3.357,4.467.58.58,0,1,1,1.135-.243,7.836,7.836,0,0,1-7.657,9.476Z" transform="translate(-126.98 -166.97)" fill="#fff"/>
    </g>
    <g id="Сгруппировать_8" data-name="Сгруппировать 8" transform="translate(13.552 25.303)">
      <path id="Контур_10" data-name="Контур 10" d="M173.11,216.158a5.011,5.011,0,0,1-1.224-9.87.581.581,0,0,1,.283,1.126,3.849,3.849,0,1,0,3.872,6.228.58.58,0,0,1,.883.753A5,5,0,0,1,173.11,216.158Z" transform="translate(-168.1 -206.272)" fill="#fff"/>
    </g>
    <g id="Сгруппировать_12" data-name="Сгруппировать 12" transform="translate(17.437 10.605)">
      <g id="Сгруппировать_9" data-name="Сгруппировать 9" transform="translate(3.024 2.954)">
        <path id="Контур_11" data-name="Контур 11" d="M260.645,65.822a.58.58,0,0,1-.41-.991L274.97,50.1a.581.581,0,1,1,.821.821L261.055,65.651A.579.579,0,0,1,260.645,65.822Z" transform="translate(-260.065 -49.925)" fill="#fff"/>
      </g>
      <g id="Сгруппировать_10" data-name="Сгруппировать 10" transform="translate(14.053 0)">
        <path id="Контур_12" data-name="Контур 12" d="M411.221,18.425a.571.571,0,0,1-.173-.026l-2.854-.89a.578.578,0,0,1-.381-.381l-.89-2.854a.581.581,0,0,1,.143-.584l2.915-2.915a.58.58,0,0,1,.97.26l.7,2.63,2.63.7a.58.58,0,0,1,.26.971l-2.915,2.915A.575.575,0,0,1,411.221,18.425Zm-2.391-1.934,2.228.695,1.957-1.956-1.982-.531a.579.579,0,0,1-.41-.41l-.531-1.982-1.956,1.956Z" transform="translate(-406.897 -10.605)" fill="#fff"/>
      </g>
      <g id="Сгруппировать_11" data-name="Сгруппировать 11" transform="translate(0 15.128)">
        <path id="Контур_13" data-name="Контур 13" d="M220.395,218.744a.58.58,0,0,1-.551-.762l1.841-5.585a.577.577,0,0,1,.3-.343.586.586,0,0,1,.456-.018l2.709,1.036a.582.582,0,0,1,.335.335l1.036,2.709a.58.58,0,0,1-.361.758l-5.585,1.841A.582.582,0,0,1,220.395,218.744Zm2.2-5.406-1.291,3.914,3.914-1.291-.726-1.9Z" transform="translate(-219.814 -211.999)" fill="#fff"/>
      </g>
    </g>
  </g>
</svg>
