<svg xmlns="http://www.w3.org/2000/svg" width="35.748" height="36.442" viewBox="0 0 35.748 36.442">
  <g id="_x35_57_x2C__award_x2C__cup_x2C__prize_x2C__reward_x2C__victory" transform="translate(-374.384 26.999)">
    <g id="Сгруппировать_14" data-name="Сгруппировать 14" transform="translate(374.384 -26.999)">
      <path id="Контур_16" data-name="Контур 16" d="M53.821,42.593V37.839a.277.277,0,0,1,.276-.276H55.3a.277.277,0,0,1,.274.276v2.766a2.528,2.528,0,0,1-.438,1.416,2.64,2.64,0,0,1-.408.464,2.513,2.513,0,0,1-.484.336.274.274,0,0,1-.428-.229m.551-4.478v3.954a1.951,1.951,0,0,0,.656-1.463V38.115h-.656ZM42.6,37.839v4.753a.3.3,0,0,1-.033.125.274.274,0,0,1-.37.117,2.5,2.5,0,0,1-.508-.35,2.55,2.55,0,0,1-.408-.464,2.471,2.471,0,0,1-.327-.674,2.523,2.523,0,0,1-.112-.741V37.839a.277.277,0,0,1,.276-.276h1.206A.278.278,0,0,1,42.6,37.839Zm4.775-1.4a.276.276,0,0,1,0-.551h6.447v-.927H42.6v1.588a.276.276,0,0,1-.276.276H40.2V40.7a3.121,3.121,0,0,0,.166,1.01,3.156,3.156,0,0,0,.484.907,3.238,3.238,0,0,0,.71.679,3.164,3.164,0,0,0,.875.43.274.274,0,0,1,.193.237,5.462,5.462,0,0,0,.4,1.6l0,.011a5.664,5.664,0,0,0,.865,1.436,5.749,5.749,0,0,0,1.259,1.127,5.6,5.6,0,0,0,1.525.7.276.276,0,0,1,.195.208,4.54,4.54,0,0,1,.094,1.055,5.487,5.487,0,0,1-.132,1.039l0,.009a7.588,7.588,0,0,1-.336,1.091c-.121.309-.26.618-.411.927h4.257c-.143-.287-.277-.578-.394-.874l-.011-.022a7.354,7.354,0,0,1-.338-1.084,5.334,5.334,0,0,1-.133-1.057,4.733,4.733,0,0,1,.1-1.086.271.271,0,0,1,.195-.206A5.68,5.68,0,0,0,53.4,45.578a5.564,5.564,0,0,0,.4-1.613.275.275,0,0,1,.193-.242,3.167,3.167,0,0,0,1.584-1.107,3.133,3.133,0,0,0,.652-1.917V36.822H54.1a.275.275,0,0,1-.276-.276v-.11Zm-1.387-.551a.276.276,0,0,1,0,.551H44.626a.276.276,0,0,1,0-.551Zm-2.1,19.495h8.642V53.723H43.89C43.89,54.852,43.89,53.766,43.89,55.381Zm6.467-1.275a.276.276,0,0,1,0,.551h-.783a.276.276,0,1,1,0-.551Zm-.088-13.787a2.907,2.907,0,0,0-4.1-.013l-.013.014a2.91,2.91,0,1,0,4.128.013Zm-2.057-1.4a3.45,3.45,0,0,1,2.447,1.015l.016.018a3.46,3.46,0,1,1-4.91-.018l.017-.016A3.452,3.452,0,0,1,48.211,38.915Zm.259,3.015-.259-.8-.259.8a.277.277,0,0,1-.262.19l-.843,0,.678.491a.275.275,0,0,1,.106.311l-.262.8.68-.495a.274.274,0,0,1,.324,0l.681.5-.262-.8a.276.276,0,0,1,.1-.307l.683-.5-.827,0A.274.274,0,0,1,48.47,41.93Zm.119-1.42.343,1.062,1.136,0a.276.276,0,0,1,.262.19l.067.208a.276.276,0,0,1-.1.307l-.919.665.353,1.082a.274.274,0,0,1-.123.323l-.166.112a.275.275,0,0,1-.325-.011l-.9-.659-.919.67a.276.276,0,0,1-.323,0l-.177-.128a.276.276,0,0,1-.1-.307l.352-1.082-.919-.665a.276.276,0,0,1-.1-.311l.066-.2a.275.275,0,0,1,.278-.19l1.12,0,.349-1.08A.276.276,0,0,1,48.1,40.3h.219A.277.277,0,0,1,48.588,40.509ZM52.714,28.7a5.34,5.34,0,0,0,.547.777,5.592,5.592,0,0,0,.674.668,5.478,5.478,0,0,0,.784.538,5.394,5.394,0,0,0,1.758.614,5.284,5.284,0,0,0-.07-.919,5.372,5.372,0,0,0-.239-.921,5.465,5.465,0,0,0-.4-.862,5.356,5.356,0,0,0-2-1.982,5.254,5.254,0,0,0-.865-.387,5.423,5.423,0,0,0-.9-.226,5.3,5.3,0,0,0,.311,1.839A5.489,5.489,0,0,0,52.714,28.7Zm-9.5.777a5.227,5.227,0,0,0,.943-1.64,5.338,5.338,0,0,0,.24-.921A5.276,5.276,0,0,0,44.468,26a5.444,5.444,0,0,0-.895.226,5.245,5.245,0,0,0-.865.387,5.383,5.383,0,0,0-.782.538,5.313,5.313,0,0,0-.676.67,5.4,5.4,0,0,0-.546.775,5.464,5.464,0,0,0-.4.862,5.357,5.357,0,0,0-.239.921A5.285,5.285,0,0,0,40,31.3a5.392,5.392,0,0,0,1.76-.614,5.473,5.473,0,0,0,.784-.538A5.563,5.563,0,0,0,43.215,29.48Zm-6.3,2.6c.291-.275.6-.54.909-.8.4-.329.827-.638,1.26-.927a.29.29,0,1,1,.321.484c-.421.28-.826.58-1.216.9-.374.3-.737.627-1.084.965.03.119.056.242.078.363a5.861,5.861,0,0,1-.728,4.027,5.95,5.95,0,0,1-.6.835l-.009.009A5.861,5.861,0,0,1,34.5,33.064a5.865,5.865,0,0,1,1.329-2.782l.01-.009a5.9,5.9,0,0,1,.609.845,5.6,5.6,0,0,1,.453.941Zm-3.994,7.551-.006.016c.14.134.273.278.4.428a5.907,5.907,0,0,1,.6.853,6.061,6.061,0,0,1,.441.952,5.738,5.738,0,0,1,.262,1.006,5.883,5.883,0,0,1,.079,1.044,5.942,5.942,0,0,1-.108,1.033,5.853,5.853,0,0,1-.949-.423,5.773,5.773,0,0,1-.865-.589,5.867,5.867,0,0,1-1.334-1.575l-.012-.02a5.819,5.819,0,0,1-.672-4.027,5.845,5.845,0,0,1,.95.426,5.5,5.5,0,0,1,.722.477c.154-.491.328-.972.523-1.44a16.481,16.481,0,0,1,.773-1.6.291.291,0,0,1,.51.28,15.957,15.957,0,0,0-1.318,3.165Zm-.234,8.162a.3.3,0,0,1,.007.063,5.929,5.929,0,0,1,.779.22,6.049,6.049,0,0,1,.95.441,6.174,6.174,0,0,1,.855.6,5.876,5.876,0,0,1,1.747,2.554,5.773,5.773,0,0,1-1.035.108,5.863,5.863,0,0,1-1.042-.078,5.945,5.945,0,0,1-1.009-.262,6.049,6.049,0,0,1-.95-.443,5.666,5.666,0,0,1-.853-.6,5.752,5.752,0,0,1-1.322-1.6,5.737,5.737,0,0,1-.426-.95,5.765,5.765,0,0,1,1.035-.107,5.436,5.436,0,0,1,.661.029q-.178-.806-.277-1.631a16.521,16.521,0,0,1-.115-1.817.29.29,0,0,1,.58-.007,16.129,16.129,0,0,0,.415,3.483Zm3.935,7.325a.366.366,0,0,1,.046.065,5.868,5.868,0,0,1,4.031.023,6.055,6.055,0,0,1,.94.452,5.791,5.791,0,0,1,.834.6l.01.009a5.842,5.842,0,0,1-7.653.009l-.009-.009a5.782,5.782,0,0,1,.843-.612c.143-.085.291-.166.442-.237a16.781,16.781,0,0,1-2.155-2.905.29.29,0,0,1,.5-.294,16.1,16.1,0,0,0,1,1.508A15.627,15.627,0,0,0,36.618,55.116Zm25.448-2.9a.29.29,0,0,1,.5.294,16.523,16.523,0,0,1-1.038,1.563,16.708,16.708,0,0,1-1.117,1.342c.152.072.3.152.445.237a6.029,6.029,0,0,1,.842.612l-.01.009a5.933,5.933,0,0,1-.834.6,5.834,5.834,0,0,1-5.034.45,5.731,5.731,0,0,1-.942-.452,5.83,5.83,0,0,1-.842-.609l.01-.009a5.862,5.862,0,0,1,.834-.6,6.108,6.108,0,0,1,.94-.452,5.9,5.9,0,0,1,3.087-.276,5.787,5.787,0,0,1,.944.253.317.317,0,0,1,.047-.065,16.1,16.1,0,0,0,2.168-2.9Zm2.181-7.912a.291.291,0,0,1,.581.007,16.774,16.774,0,0,1-.117,1.817,16.272,16.272,0,0,1-.278,1.631,5.482,5.482,0,0,1,.663-.029,5.78,5.78,0,0,1,1.035.107,5.823,5.823,0,0,1-1.747,2.554,5.687,5.687,0,0,1-.856.6,5.792,5.792,0,0,1-3,.784,5.788,5.788,0,0,1-1.035-.108,6.018,6.018,0,0,1,.426-.95,5.809,5.809,0,0,1,1.322-1.6,6.1,6.1,0,0,1,.856-.6,5.817,5.817,0,0,1,1.727-.661.292.292,0,0,1,.007-.063,16.128,16.128,0,0,0,.416-3.483Zm-1.968-7.845a.291.291,0,1,1,.511-.28,16.537,16.537,0,0,1,.773,1.6c.195.468.37.95.522,1.44a5.58,5.58,0,0,1,.724-.477,5.826,5.826,0,0,1,.949-.426,5.985,5.985,0,0,1,.109,1.035,5.826,5.826,0,0,1-.081,1.041,5.7,5.7,0,0,1-.262,1.008,5.863,5.863,0,0,1-.438.943l-.012.02a5.977,5.977,0,0,1-.6.849,5.848,5.848,0,0,1-.737.726,5.652,5.652,0,0,1-.862.589,5.81,5.81,0,0,1-.95.423,5.828,5.828,0,0,1-.107-1.033,5.989,5.989,0,0,1,.08-1.044,5.832,5.832,0,0,1,.7-1.955,5.774,5.774,0,0,1,.6-.856,5.578,5.578,0,0,1,.4-.428l0-.016a15.864,15.864,0,0,0-1.319-3.165Zm-5.2-5.647a.29.29,0,1,1,.32-.484q.662.437,1.279.939.477.386.925.806l.008-.02a5.686,5.686,0,0,1,.451-.941,6.011,6.011,0,0,1,.612-.845l.009.009a6,6,0,0,1,.6.836,5.829,5.829,0,0,1,.45,5.033,5.5,5.5,0,0,1-.451.941,5.767,5.767,0,0,1-.61.844l-.009-.009a5.843,5.843,0,0,1-1.054-1.776,5.888,5.888,0,0,1-.277-3.087c.021-.121.047-.244.077-.363q-.528-.514-1.1-.979C57.919,31.4,57.506,31.1,57.08,30.817Zm-9.145-1.6a.276.276,0,0,1,.551,0V30.9a.276.276,0,1,1-.551,0V29.215Zm6.486,3.427a.274.274,0,0,1,.273.475l-1.461.845a.276.276,0,0,1-.374-.1.273.273,0,0,1,.1-.374Zm-12.694.475A.274.274,0,1,1,42,32.642l1.461.845a.273.273,0,0,1,.1.374.276.276,0,0,1-.374.1Zm9.45-2.262a.275.275,0,0,1,.476.276l-.515.891a.274.274,0,0,1-.375.1.277.277,0,0,1-.1-.376Zm-6.411.276a.275.275,0,0,1,.476-.276l.515.892a.275.275,0,1,1-.476.276Zm.526,21.291a.292.292,0,0,1-.581-.034.3.3,0,0,1,.015-.09,5.245,5.245,0,0,0,.122-.97,4.1,4.1,0,0,0-.057-.817,6.481,6.481,0,0,1-1.6-.764,6.572,6.572,0,0,1-2.469-2.977,6.46,6.46,0,0,1-.465-1.882.29.29,0,0,1,.578-.054,5.794,5.794,0,0,0,.424,1.711,5.89,5.89,0,0,0,.916,1.521,6.046,6.046,0,0,0,1.333,1.194A5.955,5.955,0,0,0,45.124,50a.294.294,0,0,1,.205.22,4.857,4.857,0,0,1,.1,1.12A5.808,5.808,0,0,1,45.293,52.422ZM37.582,61.18a.276.276,0,1,1,0-.551h8.879a16.27,16.27,0,0,1-2.419-.444,16.552,16.552,0,0,1-3.931-1.6.291.291,0,0,1,.288-.506,15.737,15.737,0,0,0,3.79,1.539,16.122,16.122,0,0,0,8.138,0,15.758,15.758,0,0,0,3.79-1.539.291.291,0,0,1,.287.506,16.533,16.533,0,0,1-3.931,1.6,16.268,16.268,0,0,1-2.419.444h5.121a.276.276,0,0,1,0,.551Zm8.989,1.263a.276.276,0,0,1,0-.551H60.935a.276.276,0,0,1,0,.551Zm15.833,0a.276.276,0,0,1,0-.551h1.8a.276.276,0,1,1,0,.551ZM33.6,62.405a.276.276,0,0,1,0-.551H40.4a.276.276,0,0,1,0,.551Zm8.45-20.337V38.115h-.655v2.491a1.964,1.964,0,0,0,.085.58,1.98,1.98,0,0,0,.57.883Z" transform="translate(-30.384 -26.001)" fill="#fff" fill-rule="evenodd"/>
    </g>
  </g>
</svg>
