<svg xmlns="http://www.w3.org/2000/svg" width="36.389" height="36.389" viewBox="0 0 36.389 36.389">
  <g id="People" transform="translate(-53 8.402)">
    <g id="Icon-2" transform="translate(53 -8.402)">
      <path id="calendar" d="M10.739,26.256a.606.606,0,0,0-.858,0L9.1,27.04l-.784-.784a.606.606,0,1,0-.858.858l.784.784-.784.784a.606.606,0,1,0,.858.858l.784-.784.784.784a.606.606,0,0,0,.858-.858L9.955,27.9l.784-.784a.606.606,0,0,0,0-.858Zm6.065,0a.606.606,0,0,0-.858,0l-.784.784-.784-.784a.606.606,0,1,0-.858.858l.784.784-.784.784a.606.606,0,1,0,.858.858l.784-.784.784.784a.606.606,0,0,0,.858-.858l-.784-.784.784-.784a.606.606,0,0,0,0-.858Zm12.13-6.065a.606.606,0,0,0-.858,0l-.784.784-.784-.784a.606.606,0,0,0-.858.858l.784.784-.784.784a.606.606,0,1,0,.858.858l.784-.784.784.784a.606.606,0,0,0,.858-.858l-.784-.784.784-.784a.606.606,0,0,0,0-.858Zm-6.065-6.065a.606.606,0,0,0-.858,0l-.784.784-.784-.784a.606.606,0,0,0-.858.858l.784.784-.784.784a.606.606,0,1,0,.858.858l.784-.784.784.784a.606.606,0,1,0,.858-.858l-.784-.784.784-.784a.606.606,0,0,0,0-.858Zm3.817,2.248H27.9V15.162H26.685Zm2.426.606a.607.607,0,0,1-.606.606H26.079a.607.607,0,0,1-.606-.606V14.555a.607.607,0,0,1,.606-.606H28.5a.607.607,0,0,1,.606.606ZM20.62,28.5h1.213V27.291H20.62Zm2.426-1.819v2.426a.607.607,0,0,1-.606.606H20.014a.607.607,0,0,1-.606-.606V26.685a.607.607,0,0,1,.606-.606H22.44a.607.607,0,0,1,.606.606ZM20.62,22.44h1.213V21.227H20.62Zm2.426.606a.607.607,0,0,1-.606.606H20.014a.607.607,0,0,1-.606-.606V20.62a.607.607,0,0,1,.606-.606H22.44a.607.607,0,0,1,.606.606Zm-8.491-.606h1.213V21.227H14.555Zm2.426.606a.607.607,0,0,1-.606.606H13.949a.607.607,0,0,1-.606-.606V20.62a.607.607,0,0,1,.606-.606h2.426a.607.607,0,0,1,.606.606Zm-2.426-6.671h1.213V15.162H14.555Zm2.426.606a.607.607,0,0,1-.606.606H13.949a.607.607,0,0,1-.606-.606V14.555a.607.607,0,0,1,.606-.606h2.426a.607.607,0,0,1,.606.606ZM8.491,22.44H9.7V21.227H8.491Zm2.426.606a.607.607,0,0,1-.606.606H7.884a.607.607,0,0,1-.606-.606V20.62a.607.607,0,0,1,.606-.606H10.31a.607.607,0,0,1,.606.606ZM8.491,16.375H9.7V15.162H8.491Zm2.426.606a.607.607,0,0,1-.606.606H7.884a.607.607,0,0,1-.606-.606V14.555a.607.607,0,0,1,.606-.606H10.31a.607.607,0,0,1,.606.606ZM26.685,4.245a.606.606,0,1,0,1.213,0V1.819a.606.606,0,1,0-1.213,0Zm-1.213,0V1.819a1.819,1.819,0,0,1,3.639,0V4.245a1.819,1.819,0,0,1-3.639,0Zm-4.852,0a.606.606,0,0,0,1.213,0V1.819a.606.606,0,0,0-1.213,0Zm-1.213,0V1.819a1.819,1.819,0,1,1,3.639,0V4.245a1.819,1.819,0,1,1-3.639,0Zm-4.852,0a.606.606,0,1,0,1.213,0V1.819a.606.606,0,1,0-1.213,0Zm-1.213,0V1.819a1.819,1.819,0,1,1,3.639,0V4.245a1.819,1.819,0,1,1-3.639,0Zm-4.852,0a.606.606,0,1,0,1.213,0V1.819a.606.606,0,1,0-1.213,0Zm-1.213,0V1.819a1.819,1.819,0,1,1,3.639,0V4.245a1.819,1.819,0,1,1-3.639,0ZM29.289,32.927a.606.606,0,1,0,.858.858l3.639-3.639a.6.6,0,0,0,.178-.429V10.31a.607.607,0,0,0-.606-.606H3.032a.607.607,0,0,0-.606.606V31.537a2.428,2.428,0,0,0,2.426,2.426h22.44a.607.607,0,0,0,.606-.606V29.717a.648.648,0,0,1,.606-.606H30.93a.606.606,0,0,0,0-1.213H28.5a1.867,1.867,0,0,0-1.819,1.819V32.75H4.852a1.214,1.214,0,0,1-1.213-1.213V10.917H32.75v18.55ZM33.356,1.213H30.93a.606.606,0,1,0,0,1.213h2.426a2,2,0,0,1,1.819,1.819V33.356a2,2,0,0,1-1.819,1.819H3.032a2,2,0,0,1-1.819-1.819V8.491H33.356a.606.606,0,0,0,0-1.213H.606A.607.607,0,0,0,0,7.884V33.356a3.194,3.194,0,0,0,3.032,3.032H33.356a3.194,3.194,0,0,0,3.032-3.032V4.245a3.194,3.194,0,0,0-3.032-3.032ZM0,5.458V4.245A3.194,3.194,0,0,1,3.032,1.213H5.458a.606.606,0,0,1,0,1.213H3.032A2,2,0,0,0,1.213,4.245V5.458A.606.606,0,0,1,0,5.458Z" fill="#fff" fill-rule="evenodd"/>
    </g>
  </g>
</svg>
